# xmcd
# 
# Track frame offsets:
#     150
#     18982
#     44400
#     64162
#     82995
#     101827
#     120660
# 
# Disc length: 1857
# 
# Revision: 1
# Processed by: cddbd v1.5.1PL2 Copyright (c) Steve Scherf et al.
# Submitted via: BonkEnc v1.0beta3
# 
DISCID=55073f07
DTITLE=Tackey&Tsubasa - Venus
DYEAR=2006
DGENRE=JPop
TTITLE0=Venus
TTITLE1=君の名を呼びたい
TTITLE2=Never Ever
TTITLE3=Venus 〜Korean Ver〜
TTITLE4=Venus 〜Chinese Ver〜
TTITLE5=Venus 〜Thai Ver〜
TTITLE6=Venus 〜Karaoke〜
EXTD=YEAR: 2006/01/18
EXTT0=
EXTT1=
EXTT2=
EXTT3=
EXTT4=
EXTT5=
EXTT6=
PLAYORDER=
